HIERARCHY
ROOT Hips
{
	OFFSET -0.265452 88.605217 4.257980
	CHANNELS 6 Xposition Yposition Zposition Zrotation Yrotation Xrotation 
	JOINT Spine
	{
		OFFSET 0.000000 8.814246 -2.080107
		CHANNELS 3 Zrotation Yrotation Xrotation
		JOINT Spine1
		{
			OFFSET 0.000000 8.844141 0.000000
			CHANNELS 3 Zrotation Yrotation Xrotation
			JOINT Spine2
			{
				OFFSET 0.000000 11.682268 -0.000000
				CHANNELS 3 Zrotation Yrotation Xrotation
				JOINT Spine3
				{
					OFFSET -0.000000 11.746700 -0.000000
					CHANNELS 3 Zrotation Yrotation Xrotation
					JOINT Neck
					{
						OFFSET -0.000000 17.658264 -0.000000
						CHANNELS 3 Zrotation Yrotation Xrotation
						JOINT Neck1
						{
							OFFSET 0.000000 5.101515 0.000000
							CHANNELS 3 Zrotation Yrotation Xrotation
							JOINT Head
							{
								OFFSET 0.000000 5.101515 0.000000
								CHANNELS 3 Zrotation Yrotation Xrotation
								JOINT HeadEnd
								{
									OFFSET 0.000000 11.655085 0.000000
									CHANNELS 3 Zrotation Yrotation Xrotation
									End Site
									{
										OFFSET 0.000000 0.000000 0.000000
									}
								}
							}
						}
					}
					JOINT RightShoulder
					{
						OFFSET -2.625389 11.175210 0.000000
						CHANNELS 3 Zrotation Yrotation Xrotation
						JOINT RightArm
						{
							OFFSET 0.000000 10.434715 0.000000
							CHANNELS 3 Zrotation Yrotation Xrotation
							JOINT RightForeArm
							{
								OFFSET 0.000000 29.628420 -0.000000
								CHANNELS 3 Zrotation Yrotation Xrotation
								JOINT RightHand
								{
									OFFSET -0.000000 22.857611 0.000000
									CHANNELS 3 Zrotation Yrotation Xrotation
									JOINT RightHandThumb1
									{
										OFFSET -2.867323 3.959563 2.944291
										CHANNELS 3 Zrotation Yrotation Xrotation
										JOINT RightHandThumb2
										{
											OFFSET -0.000000 3.350399 0.000000
											CHANNELS 3 Zrotation Yrotation Xrotation
											JOINT RightHandThumb3
											{
												OFFSET -0.000000 3.756509 0.000000
												CHANNELS 3 Zrotation Yrotation Xrotation
												JOINT RightHandThumb4
												{
													OFFSET 0.000000 3.147345 -0.000000
													CHANNELS 3 Zrotation Yrotation Xrotation
													End Site
													{
														OFFSET 0.000000 0.000000 0.000000
													}
												}
											}
										}
									}
									JOINT RightHandIndex1
									{
										OFFSET -0.086752 10.030893 2.345280
										CHANNELS 3 Zrotation Yrotation Xrotation
										JOINT RightHandIndex2
										{
											OFFSET 0.000000 4.061090 -0.000000
											CHANNELS 3 Zrotation Yrotation Xrotation
											JOINT RightHandIndex3
											{
												OFFSET 0.000000 3.248873 0.000000
												CHANNELS 3 Zrotation Yrotation Xrotation
												JOINT RightHandIndex4
												{
													OFFSET 0.000000 2.639709 -0.000000
													CHANNELS 3 Zrotation Yrotation Xrotation
													End Site
													{
														OFFSET 0.000000 0.000000 0.000000
													}
												}
											}
										}
									}
									JOINT RightHandMiddle1
									{
										OFFSET 0.104102 9.502952 0.006768
										CHANNELS 3 Zrotation Yrotation Xrotation
										JOINT RightHandMiddle2
										{
											OFFSET -0.000000 4.568727 0.000000
											CHANNELS 3 Zrotation Yrotation Xrotation
											JOINT RightHandMiddle3
											{
												OFFSET 0.000000 3.654981 -0.000000
												CHANNELS 3 Zrotation Yrotation Xrotation
												JOINT RightHandMiddle4
												{
													OFFSET 0.000000 2.741236 0.000000
													CHANNELS 3 Zrotation Yrotation Xrotation
													End Site
													{
														OFFSET 0.000000 0.000000 0.000000
													}
												}
											}
										}
									}
									JOINT RightHandRing1
									{
										OFFSET 0.086752 8.921708 -2.267442
										CHANNELS 3 Zrotation Yrotation Xrotation
										JOINT RightHandRing2
										{
											OFFSET 0.000000 4.061090 -0.000000
											CHANNELS 3 Zrotation Yrotation Xrotation
											JOINT RightHandRing3
											{
												OFFSET 0.000000 3.654981 -0.000000
												CHANNELS 3 Zrotation Yrotation Xrotation
												JOINT RightHandRing4
												{
													OFFSET 0.000000 2.741236 -0.000000
													CHANNELS 3 Zrotation Yrotation Xrotation
													End Site
													{
														OFFSET 0.000000 0.000000 0.000000
													}
												}
											}
										}
									}
									JOINT RightHandPinky1
									{
										OFFSET -0.173504 7.976997 -4.467199
										CHANNELS 3 Zrotation Yrotation Xrotation
										JOINT RightHandPinky2
										{
											OFFSET 0.000000 3.350399 -0.000000
											CHANNELS 3 Zrotation Yrotation Xrotation
											JOINT RightHandPinky3
											{
												OFFSET -0.000000 2.842763 -0.000000
												CHANNELS 3 Zrotation Yrotation Xrotation
												JOINT RightHandPinky4
												{
													OFFSET 0.000000 2.639709 -0.000000
													CHANNELS 3 Zrotation Yrotation Xrotation
													End Site
													{
														OFFSET 0.000000 0.000000 0.000000
													}
												}
											}
										}
									}
									JOINT RightForeArmEnd
									{
										OFFSET 0.000000 0.000000 0.000000
										CHANNELS 3 Zrotation Yrotation Xrotation
										End Site
										{
											OFFSET 0.000000 0.000000 0.000000
										}
									}
								}
								JOINT RightArmEnd
								{
									OFFSET 0.000000 0.000000 0.000000
									CHANNELS 3 Zrotation Yrotation Xrotation
									End Site
									{
										OFFSET 0.000000 0.000000 0.000000
									}
								}
							}
						}
					}
					JOINT LeftShoulder
					{
						OFFSET 2.625389 11.175210 0.000000
						CHANNELS 3 Zrotation Yrotation Xrotation
						JOINT LeftArm
						{
							OFFSET 0.000000 10.813635 -0.000000
							CHANNELS 3 Zrotation Yrotation Xrotation
							JOINT LeftForeArm
							{
								OFFSET 0.000000 28.724781 -0.000000
								CHANNELS 3 Zrotation Yrotation Xrotation
								JOINT LeftHand
								{
									OFFSET 0.644384 25.716167 -0.328871
									CHANNELS 3 Zrotation Yrotation Xrotation
									JOINT LeftHandThumb1
									{
										OFFSET 2.867323 3.959563 2.944291
										CHANNELS 3 Zrotation Yrotation Xrotation
										JOINT LeftHandThumb2
										{
											OFFSET -0.000000 3.350399 0.000000
											CHANNELS 3 Zrotation Yrotation Xrotation
											JOINT LeftHandThumb3
											{
												OFFSET 0.000000 3.756509 0.000000
												CHANNELS 3 Zrotation Yrotation Xrotation
												JOINT LeftHandThumb4
												{
													OFFSET 0.000000 3.100000 0.000000
													CHANNELS 3 Zrotation Yrotation Xrotation
													End Site
													{
														OFFSET 0.000000 0.000000 0.000000
													}
												}
											}
										}
									}
									JOINT LeftHandIndex1
									{
										OFFSET 0.086752 10.030893 2.345280
										CHANNELS 3 Zrotation Yrotation Xrotation
										JOINT LeftHandIndex2
										{
											OFFSET -0.000000 4.061090 -0.000000
											CHANNELS 3 Zrotation Yrotation Xrotation
											JOINT LeftHandIndex3
											{
												OFFSET 0.000000 3.248873 0.000000
												CHANNELS 3 Zrotation Yrotation Xrotation
												JOINT LeftHandIndex4
												{
													OFFSET 0.000000 2.639709 0.000000
													CHANNELS 3 Zrotation Yrotation Xrotation
													End Site
													{
														OFFSET 0.000000 0.000000 0.000000
													}
												}
											}
										}
									}
									JOINT LeftHandMiddle1
									{
										OFFSET -0.104102 9.502952 0.006768
										CHANNELS 3 Zrotation Yrotation Xrotation
										JOINT LeftHandMiddle2
										{
											OFFSET -0.000000 4.568727 -0.000000
											CHANNELS 3 Zrotation Yrotation Xrotation
											JOINT LeftHandMiddle3
											{
												OFFSET 0.000000 3.654981 0.000000
												CHANNELS 3 Zrotation Yrotation Xrotation
												JOINT LeftHandMiddle4
												{
													OFFSET 0.000000 2.741236 -0.000000
													CHANNELS 3 Zrotation Yrotation Xrotation
													End Site
													{
														OFFSET 0.000000 0.000000 0.000000
													}
												}
											}
										}
									}
									JOINT LeftHandRing1
									{
										OFFSET -0.086752 8.921708 -2.267442
										CHANNELS 3 Zrotation Yrotation Xrotation
										JOINT LeftHandRing2
										{
											OFFSET -0.000000 4.061090 0.000000
											CHANNELS 3 Zrotation Yrotation Xrotation
											JOINT LeftHandRing3
											{
												OFFSET 0.000000 3.654981 0.000000
												CHANNELS 3 Zrotation Yrotation Xrotation
												JOINT LeftHandRing4
												{
													OFFSET -0.000000 2.741236 -0.000000
													CHANNELS 3 Zrotation Yrotation Xrotation
													End Site
													{
														OFFSET 0.000000 0.000000 0.000000
													}
												}
											}
										}
									}
									JOINT LeftHandPinky1
									{
										OFFSET 0.173504 7.976997 -4.467199
										CHANNELS 3 Zrotation Yrotation Xrotation
										JOINT LeftHandPinky2
										{
											OFFSET 0.000000 3.350399 0.000000
											CHANNELS 3 Zrotation Yrotation Xrotation
											JOINT LeftHandPinky3
											{
												OFFSET -0.000000 2.842763 0.000000
												CHANNELS 3 Zrotation Yrotation Xrotation
												JOINT LeftHandPinky4
												{
													OFFSET -0.000000 2.639709 -0.000000
													CHANNELS 3 Zrotation Yrotation Xrotation
													End Site
													{
														OFFSET 0.000000 0.000000 0.000000
													}
												}
											}
										}
									}
									JOINT LeftForeArmEnd
									{
										OFFSET 0.000000 0.000000 0.000000
										CHANNELS 3 Zrotation Yrotation Xrotation
										End Site
										{
											OFFSET 0.000000 0.000000 0.000000
										}
									}
								}
								JOINT LeftArmEnd
								{
									OFFSET 0.000000 0.000000 0.000000
									CHANNELS 3 Zrotation Yrotation Xrotation
									End Site
									{
										OFFSET 0.000000 0.000000 0.000000
									}
								}
							}
						}
					}
				}
			}
		}
	}
	JOINT RightUpLeg
	{
		OFFSET -11.289943 0.000000 -0.000000
		CHANNELS 3 Zrotation Yrotation Xrotation
		JOINT RightLeg
		{
			OFFSET 0.000000 -38.200325 0.000000
			CHANNELS 3 Zrotation Yrotation Xrotation
			JOINT RightFoot
			{
				OFFSET -0.000000 -39.900856 -0.000000
				CHANNELS 3 Zrotation Yrotation Xrotation
				JOINT RightToeBase
				{
					OFFSET -0.000000 -0.000000 15.261641
					CHANNELS 3 Zrotation Yrotation Xrotation
					JOINT RightToeBaseEnd
					{
						OFFSET -0.000000 0.000000 7.370709
						CHANNELS 3 Zrotation Yrotation Xrotation
						End Site
						{
							OFFSET 0.000000 0.000000 0.000000
						}
					}
				}
				JOINT RightLegEnd
				{
					OFFSET 0.000000 0.000000 0.000000
					CHANNELS 3 Zrotation Yrotation Xrotation
					End Site
					{
						OFFSET 0.000000 0.000000 0.000000
					}
				}
			}
			JOINT RightUpLegEnd
			{
				OFFSET 0.000000 0.000000 0.000000
				CHANNELS 3 Zrotation Yrotation Xrotation
				End Site
				{
					OFFSET 0.000000 0.000000 0.000000
				}
			}
		}
	}
	JOINT LeftUpLeg
	{
		OFFSET 11.315661 0.000000 0.000000
		CHANNELS 3 Zrotation Yrotation Xrotation
		JOINT LeftLeg
		{
			OFFSET -0.000000 -38.200325 -0.000000
			CHANNELS 3 Zrotation Yrotation Xrotation
			JOINT LeftFoot
			{
				OFFSET -0.000000 -39.900856 -0.000000
				CHANNELS 3 Zrotation Yrotation Xrotation
				JOINT LeftToeBase
				{
					OFFSET -0.000000 0.000000 15.261641
					CHANNELS 3 Zrotation Yrotation Xrotation
					JOINT LeftToeBaseEnd
					{
						OFFSET 0.000000 0.000000 7.539996
						CHANNELS 3 Zrotation Yrotation Xrotation
						End Site
						{
							OFFSET 0.000000 0.000000 0.000000
						}
					}
				}
				JOINT LeftLegEnd
				{
					OFFSET 0.000000 0.000000 0.000000
					CHANNELS 3 Zrotation Yrotation Xrotation
					End Site
					{
						OFFSET 0.000000 0.000000 0.000000
					}
				}
			}
			JOINT LeftUpLegEnd
			{
				OFFSET 0.000000 0.000000 0.000000
				CHANNELS 3 Zrotation Yrotation Xrotation
				End Site
				{
					OFFSET 0.000000 0.000000 0.000000
				}
			}
		}
	}
}
MOTION
Frames: 4
Frame Time: 0.016667
-0.265452 88.605217 4.257980 -0.454245 -0.083215 -10.380910 0.275446 0.324051 7.612736 -0.543995 0.017919 1.807423 -0.029217 -1.350203 4.745526 -0.268916 -0.358599 2.789710 4.507185 -3.326365 5.496028 -0.371681 -1.949736 -3.519749 0.289243 -0.863606 -20.550581 0.000000 0.000000 0.000000 92.932419 -0.490264 9.871702 66.089867 -38.154816 6.438686 -0.234485 12.358835 21.715240 6.547370 14.649137 -5.523863 11.835789 -1.931521 39.346298 0.000000 0.000000 -28.799997 0.000000 0.000000 -20.000000 0.000000 0.000000 0.000000 19.263674 0.000000 -7.704475 13.484571 0.000000 0.000000 13.484571 0.000000 0.000000 0.000000 0.000000 0.000000 18.086290 0.000000 -9.065624 12.660404 0.000000 0.000000 12.660404 0.000000 0.000000 0.000000 0.000000 0.000000 19.435028 -0.000000 -9.077546 13.604520 0.000000 0.000000 13.604520 0.000000 0.000000 0.000000 0.000000 0.000000 19.814247 -0.000000 -10.566168 13.869969 0.000000 0.000000 13.869969 0.000000 0.000000 0.000000 0.000000 0.000000 0.000000 0.000000 0.000000 0.000000 0.000000 0.000000 -90.636360 0.078010 5.095915 -73.781784 21.095537 -7.668812 -0.760107 -7.093397 39.224567 -3.071939 -23.757849 -15.779433 -11.536110 1.910869 39.476406 0.000000 0.000000 -28.080000 0.000000 0.000000 -19.500000 0.000000 0.000000 0.000000 -17.372934 -0.000000 -5.123695 -12.161054 0.000000 0.000000 -12.161054 0.000000 0.000000 0.000000 0.000000 0.000000 -15.255083 0.000000 -6.966299 -10.678558 0.000000 0.000000 -10.678558 0.000000 0.000000 0.000000 0.000000 0.000000 -13.557843 -0.000000 -8.428561 -9.490490 0.000000 0.000000 -9.490490 0.000000 0.000000 0.000000 0.000000 0.000000 -10.746605 0.000000 -9.285199 -7.522625 0.000000 0.000000 -7.522625 0.000000 0.000000 0.000000 0.000000 0.000000 0.000000 0.000000 0.000000 0.000000 0.000000 0.000000 -1.117111 -8.829633 14.404868 -0.065786 -0.723689 5.274984 -1.313925 -8.138850 18.180826 -0.878597 1.025824 -18.473783 0.000000 0.000000 0.000000 0.000000 0.000000 0.000000 0.000000 0.000000 0.000000 0.589655 -3.811190 10.205116 0.096964 0.525944 11.104564 1.998651 2.876804 14.916826 0.695778 -0.550184 -19.624710 0.000000 0.000000 0.000000 0.000000 0.000000 0.000000 0.000000 0.000000 0.000000 
-0.154564 88.543144 4.242389 -0.828585 -0.084359 -11.298569 1.018345 -0.087265 7.777042 -0.580312 0.081291 3.258995 0.098897 -0.982117 5.122364 -0.967863 -0.116316 3.975167 4.472499 -2.085681 3.444536 0.160342 -0.512216 -3.741126 0.187902 -0.516783 -18.799955 0.000000 0.000000 0.000000 93.205513 -0.740304 10.372242 64.925186 -36.951672 7.742574 -0.239165 13.471548 22.378096 6.113676 11.592646 -6.650789 11.054121 -1.874002 39.675945 -0.000016 0.000025 -27.161905 0.000017 0.000043 -18.805689 0.000003 -0.000005 -0.000028 17.937704 0.032953 -7.622280 12.439384 -0.024665 -0.059721 12.617262 -0.008529 -0.054108 -0.000036 0.000026 -0.000020 17.090237 0.013658 -9.046996 11.665127 -0.016970 -0.011166 11.778526 -0.005501 -0.009838 0.000022 0.000016 0.000004 18.844818 -0.041001 -8.816861 12.735428 0.028221 0.053565 12.717786 -0.002700 0.038578 -0.000010 0.000555 0.000009 19.245670 -0.072400 -10.231192 12.926951 0.006666 0.322250 12.845180 -0.044299 0.246634 0.000074 -0.000004 0.000048 0.000000 0.000000 0.000000 0.000000 0.000000 0.000000 -88.959358 0.222789 6.003588 -73.189804 23.353638 -6.904132 -0.767162 -9.799146 41.460552 -3.948913 -26.740381 -14.257700 -9.830420 1.701992 40.289974 0.000010 0.000017 -23.830976 -0.000069 -0.000025 -16.536224 -0.000705 -0.000005 -0.000157 -11.841049 0.055380 -4.690073 -8.625520 -0.035116 -0.059525 -8.923816 0.002466 -0.065977 0.000007 0.000262 -0.000001 -11.021154 0.034244 -7.001717 -7.930123 -0.019639 -0.028405 -7.595170 0.000384 -0.027583 0.000473 -0.000045 -0.000070 -10.828447 -0.015576 -9.460154 -7.429134 0.039573 0.053268 -7.221990 0.005727 0.042630 0.000595 0.000014 0.000006 -9.398405 -0.013857 -12.030227 -6.668387 0.083404 0.300389 -6.706047 0.019460 0.197845 0.000179 -0.000007 -0.000032 0.000000 0.000000 0.000000 0.000000 0.000000 0.000000 -1.938458 -8.498781 13.911876 -0.131299 -0.817460 7.273320 -1.052017 -8.224304 17.832172 -0.922917 1.048475 -18.605339 0.000000 0.000000 0.000000 0.000000 0.000000 0.000000 0.000000 0.000000 0.000000 0.318541 -3.295265 9.974285 0.084741 0.435794 12.057793 2.315082 3.281516 14.998655 0.463454 -0.469094 -20.218699 0.000000 0.000000 0.000000 0.000000 0.000000 0.000000 0.000000 0.000000 0.000000 
-0.104247 88.533768 4.255078 -0.819866 0.013633 -11.267853 0.974349 -0.075149 7.836082 -0.556400 0.078772 3.250050 0.052701 -1.008111 5.215584 -0.919169 -0.140454 3.851201 4.478829 -2.092741 3.396469 0.124633 -0.565734 -3.742718 0.176139 -0.513755 -18.843916 0.000000 0.000000 0.000000 93.193138 -0.752816 10.429861 64.874077 -36.592693 7.636049 -0.226575 13.698334 22.760778 6.042403 11.974703 -6.871272 10.931223 -1.862000 39.737316 -0.000009 0.000036 -26.838913 0.000016 0.000037 -18.594522 0.000014 0.000003 -0.000039 17.032185 0.032131 -7.546204 12.083687 -0.027223 -0.047500 12.250513 -0.009093 -0.045595 -0.000013 0.000039 -0.000019 16.249205 0.013907 -9.014288 11.316231 -0.017108 -0.007402 11.423066 -0.005650 -0.006026 0.000018 0.000018 -0.000004 18.130802 -0.039675 -8.885295 12.387346 0.027186 0.049735 12.364436 -0.004131 0.034708 -0.000016 0.000630 -0.000002 18.732477 -0.071773 -10.400640 12.634219 0.005147 0.334249 12.546701 -0.048579 0.249514 0.000120 0.000006 0.000042 0.000000 0.000000 0.000000 0.000000 0.000000 0.000000 -88.828415 0.166649 6.003753 -73.360725 22.881983 -6.918382 -0.755385 -9.795732 41.570366 -3.059915 -26.838198 -14.866476 -9.497282 1.664823 40.441341 0.000020 0.000021 -23.016977 -0.000063 -0.000016 -15.969162 -0.000768 0.000005 0.000139 -9.872095 0.058837 -4.223656 -7.770183 -0.038668 -0.099569 -8.082412 -0.001013 -0.108168 0.000019 0.000228 0.000006 -9.212370 0.033809 -6.723062 -7.099522 -0.021434 -0.046243 -6.768473 -0.001032 -0.041177 0.000545 -0.000043 -0.000078 -9.289399 -0.012738 -9.395603 -6.648283 0.041925 0.073874 -6.438378 0.007459 0.057623 0.000420 0.000015 0.000011 -8.194451 -0.003411 -12.226235 -5.996326 0.087903 0.347646 -6.024986 0.022094 0.235310 0.000145 0.000007 -0.000045 0.000000 0.000000 0.000000 0.000000 0.000000 0.000000 -2.021847 -8.549473 14.008101 -0.127072 -0.814841 7.207981 -0.976116 -8.199298 17.770161 -0.911214 1.052307 -18.641491 0.000000 0.000000 0.000000 0.000000 0.000000 0.000000 0.000000 0.000000 0.000000 0.354632 -3.292806 10.087313 0.081917 0.435809 11.854739 2.272351 2.981257 15.036325 0.471923 -0.485636 -20.246174 0.000000 0.000000 0.000000 0.000000 0.000000 0.000000 0.000000 0.000000 0.000000 
-0.052520 88.522575 4.265300 -0.787897 0.103273 -11.212960 0.923607 -0.062597 7.881194 -0.558105 0.080876 3.195306 0.021620 -1.045350 5.267322 -0.883038 -0.161147 3.780866 4.475621 -2.120361 3.310850 0.086138 -0.598010 -3.778177 0.174506 -0.494859 -18.886093 0.000000 0.000000 0.000000 93.175850 -0.771572 10.424894 64.936684 -36.293404 7.379281 -0.215033 13.940533 23.229876 6.041616 12.176416 -7.099559 10.795813 -1.844111 39.808189 -0.000003 0.000036 -26.484198 0.000012 0.000039 -18.354168 0.000013 0.000003 -0.000038 16.172014 0.027838 -7.431478 11.770590 -0.017908 -0.066723 11.928566 0.001746 -0.065933 -0.000010 0.000038 -0.000021 15.448302 0.013605 -8.951786 11.009737 -0.012693 -0.016029 11.118252 -0.002013 -0.012762 0.000017 0.000024 -0.000001 17.414419 -0.038012 -8.923769 12.068139 0.018614 0.060379 12.053093 -0.010255 0.042658 -0.000014 0.000607 -0.000000 18.147480 -0.068860 -10.558499 12.341484 -0.014544 0.381139 12.249527 -0.065841 0.282696 0.000129 0.000005 0.000034 0.000000 0.000000 0.000000 0.000000 0.000000 0.000000 -88.643074 0.118366 5.973940 -73.584236 22.437376 -6.939820 -0.776316 -9.910947 41.682667 -2.514700 -26.712877 -15.284789 -9.056353 1.611323 40.645111 0.000018 0.000022 -21.945742 -0.000067 -0.000017 -15.233189 -0.000834 0.000005 0.000345 -7.432648 0.057723 -3.522443 -6.755409 -0.037918 -0.134482 -7.072065 -0.000530 -0.145593 0.000016 0.000171 0.000005 -6.985189 0.032999 -6.271181 -6.098212 -0.021359 -0.060923 -5.770447 -0.001165 -0.052854 0.000598 -0.000044 -0.000080 -7.340387 -0.009603 -9.248466 -5.646717 0.040838 0.092472 -5.430950 0.007151 0.071270 0.000344 0.000015 0.000011 -6.603519 0.007066 -12.417019 -5.105998 0.084828 0.392483 -5.127254 0.018977 0.270711 0.000074 0.000006 -0.000045 0.000000 0.000000 0.000000 0.000000 0.000000 0.000000 -2.111763 -8.600431 14.034120 -0.124570 -0.813457 7.164348 -0.913784 -8.215958 17.700905 -0.903282 1.049890 -18.665981 0.000000 0.000000 0.000000 0.000000 0.000000 0.000000 0.000000 0.000000 0.000000 0.357870 -3.292889 10.164751 0.080161 0.433571 11.671068 2.260855 2.788023 15.072654 0.471496 -0.490904 -20.278000 0.000000 0.000000 0.000000 0.000000 0.000000 0.000000 0.000000 0.000000 0.000000 
